<svg xmlns="http://www.w3.org/2000/svg" height="40" viewBox="0 -960 960 960" width="40"><path d="M269.333-126.667q-25.625 0-44.479-18.854T206-190v-548.001h-8.167q-13.333 0-22.583-9.283-9.25-9.284-9.25-22.5t9.25-22.383q9.25-9.167 22.583-9.167h155.624q0-13.616 8.825-22.808 8.826-9.191 22.384-9.191H576q13.559 0 22.414 9.2 8.855 9.199 8.855 22.799h156.033q12.865 0 22.115 9.309 9.25 9.309 9.25 22.308 0 13.383-9.275 22.55-9.275 9.166-22.225 9.166h-8.5V-190q0 25.625-18.854 44.479t-44.479 18.854H269.333Zm0-611.334V-190h422.001v-548.001H269.333ZM368-304.666q0 13.333 9.357 22.416 9.356 9.084 22.427 9.084 13.07 0 22.31-9.084 9.239-9.083 9.239-22.416v-319.335q0-13.333-9.308-22.583-9.309-9.25-22.309-9.25-13.383 0-22.549 9.25-9.167 9.25-9.167 22.583v319.335Zm161.334 0q0 13.333 9.356 22.416 9.357 9.084 22.427 9.084 13.071 0 22.31-9.084 9.24-9.083 9.24-22.416v-319.335q0-13.333-9.309-22.583-9.309-9.25-22.308-9.25-13.383 0-22.55 9.25-9.166 9.25-9.166 22.583v319.335ZM269.333-738.001V-190v-548.001Z"/></svg>